<svg class="lds-flask" width="200px"  height="200px"  xmlns="http://www.w3.org/2000/svg" xmlns:xlink="http://www.w3.org/1999/xlink" viewBox="0 0 100 100" preserveAspectRatio="xMidYMid" style="background: none;"><defs>
<clipPath id="lds-flask-cpid-ae17417ca339" clipPathUnits="userSpaceOnUse">
<rect x="0" y="50" width="100" height="50"></rect>
</clipPath>
<pattern id="lds-flask-patid-027471c573877" patternUnits="userSpaceOnUse" x="0" y="0" width="100" height="100">
<rect x="0" y="0" width="100" height="100" fill="#689cc5"></rect><circle cx="34" cy="0" r="2" fill="#93dbe9" transform="translate(0 64.0393)">
<animateTransform attributeName="transform" type="translate" values="0 132;0 -32" keyTimes="0;1" dur="3s" begin="-0.51s" repeatCount="indefinite"></animateTransform>
</circle><circle cx="28" cy="0" r="3" fill="#93dbe9" transform="translate(0 61.0384)">
<animateTransform attributeName="transform" type="translate" values="0 123;0 -23" keyTimes="0;1" dur="3s" begin="-0.54s" repeatCount="indefinite"></animateTransform>
</circle><circle cx="73" cy="0" r="3" fill="#93dbe9" transform="translate(0 62.2375)">
<animateTransform attributeName="transform" type="translate" values="0 114;0 -14" keyTimes="0;1" dur="3s" begin="-0.48s" repeatCount="indefinite"></animateTransform>
</circle><circle cx="40" cy="0" r="2" fill="#93dbe9" transform="translate(0 103.417)">
<animateTransform attributeName="transform" type="translate" values="0 105;0 -5" keyTimes="0;1" dur="3s" begin="-2.31s" repeatCount="indefinite"></animateTransform>
</circle><circle cx="65" cy="0" r="2" fill="#93dbe9" transform="translate(0 -0.63588)">
<animateTransform attributeName="transform" type="translate" values="0 136;0 -36" keyTimes="0;1" dur="3s" begin="-1.65s" repeatCount="indefinite"></animateTransform>
</circle><circle cx="27" cy="0" r="3" fill="#93dbe9" transform="translate(0 104.351)">
<animateTransform attributeName="transform" type="translate" values="0 117;0 -17" keyTimes="0;1" dur="3s" begin="-2.55s" repeatCount="indefinite"></animateTransform>
</circle><circle cx="39" cy="0" r="3" fill="#93dbe9" transform="translate(0 23.4472)">
<animateTransform attributeName="transform" type="translate" values="0 122;0 -22" keyTimes="0;1" dur="3s" begin="-1.32s" repeatCount="indefinite"></animateTransform>
</circle><circle cx="36" cy="0" r="3" fill="#93dbe9" transform="translate(0 118.987)">
<animateTransform attributeName="transform" type="translate" values="0 147;0 -47" keyTimes="0;1" dur="3s" begin="-2.7s" repeatCount="indefinite"></animateTransform>
</circle><circle cx="27" cy="0" r="3" fill="#93dbe9" transform="translate(0 103.761)">
<animateTransform attributeName="transform" type="translate" values="0 109;0 -9" keyTimes="0;1" dur="3s" begin="-2.4s" repeatCount="indefinite"></animateTransform>
</circle><circle cx="96" cy="0" r="3" fill="#93dbe9" transform="translate(0 25.236)">
<animateTransform attributeName="transform" type="translate" values="0 121;0 -21" keyTimes="0;1" dur="3s" begin="-1.29s" repeatCount="indefinite"></animateTransform>
</circle><circle cx="85" cy="0" r="3" fill="#93dbe9" transform="translate(0 27.8726)">
<animateTransform attributeName="transform" type="translate" values="0 110;0 -10" keyTimes="0;1" dur="3s" begin="-1.32s" repeatCount="indefinite"></animateTransform>
</circle><circle cx="45" cy="0" r="2" fill="#93dbe9" transform="translate(0 -11.3001)">
<animateTransform attributeName="transform" type="translate" values="0 116;0 -16" keyTimes="0;1" dur="3s" begin="-2.16s" repeatCount="indefinite"></animateTransform>
</circle><circle cx="99" cy="0" r="3" fill="#93dbe9" transform="translate(0 17.579)">
<animateTransform attributeName="transform" type="translate" values="0 107;0 -7" keyTimes="0;1" dur="3s" begin="-1.62s" repeatCount="indefinite"></animateTransform>
</circle><circle cx="3" cy="0" r="2" fill="#93dbe9" transform="translate(0 4.32385)">
<animateTransform attributeName="transform" type="translate" values="0 111;0 -11" keyTimes="0;1" dur="3s" begin="-1.89s" repeatCount="indefinite"></animateTransform>
</circle><circle cx="29" cy="0" r="2" fill="#93dbe9" transform="translate(0 83.7193)">
<animateTransform attributeName="transform" type="translate" values="0 132;0 -32" keyTimes="0;1" dur="3s" begin="-0.15s" repeatCount="indefinite"></animateTransform>
</circle><circle cx="80" cy="0" r="3" fill="#93dbe9" transform="translate(0 144.17)">
<animateTransform attributeName="transform" type="translate" values="0 149;0 -49" keyTimes="0;1" dur="3s" begin="-2.34s" repeatCount="indefinite"></animateTransform>
</circle><circle cx="9" cy="0" r="2" fill="#93dbe9" transform="translate(0 29.6199)">
<animateTransform attributeName="transform" type="translate" values="0 116;0 -16" keyTimes="0;1" dur="3s" begin="-1.23s" repeatCount="indefinite"></animateTransform>
</circle><circle cx="85" cy="0" r="2" fill="#93dbe9" transform="translate(0 138.465)">
<animateTransform attributeName="transform" type="translate" values="0 145;0 -45" keyTimes="0;1" dur="3s" begin="-2.37s" repeatCount="indefinite"></animateTransform>
</circle><circle cx="34" cy="0" r="2" fill="#93dbe9" transform="translate(0 91.6984)">
<animateTransform attributeName="transform" type="translate" values="0 123;0 -23" keyTimes="0;1" dur="3s" begin="-2.91s" repeatCount="indefinite"></animateTransform>
</circle><circle cx="63" cy="0" r="3" fill="#93dbe9" transform="translate(0 56.6726)">
<animateTransform attributeName="transform" type="translate" values="0 110;0 -10" keyTimes="0;1" dur="3s" begin="-0.6s" repeatCount="indefinite"></animateTransform>
</circle><circle cx="23" cy="0" r="3" fill="#93dbe9" transform="translate(0 80.1614)">
<animateTransform attributeName="transform" type="translate" values="0 109;0 -9" keyTimes="0;1" dur="3s" begin="0s" repeatCount="indefinite"></animateTransform>
</circle><circle cx="45" cy="0" r="3" fill="#93dbe9" transform="translate(0 75.0102)">
<animateTransform attributeName="transform" type="translate" values="0 108;0 -8" keyTimes="0;1" dur="3s" begin="-0.12s" repeatCount="indefinite"></animateTransform>
</circle><circle cx="22" cy="0" r="2" fill="#93dbe9" transform="translate(0 27.4217)">
<animateTransform attributeName="transform" type="translate" values="0 134;0 -34" keyTimes="0;1" dur="3s" begin="-1.17s" repeatCount="indefinite"></animateTransform>
</circle><circle cx="75" cy="0" r="2" fill="#93dbe9" transform="translate(0 38.6726)">
<animateTransform attributeName="transform" type="translate" values="0 110;0 -10" keyTimes="0;1" dur="3s" begin="-1.05s" repeatCount="indefinite"></animateTransform>
</circle><circle cx="100" cy="0" r="2" fill="#93dbe9" transform="translate(0 22.5575)">
<animateTransform attributeName="transform" type="translate" values="0 114;0 -14" keyTimes="0;1" dur="3s" begin="-1.41s" repeatCount="indefinite"></animateTransform>
</circle><circle cx="13" cy="0" r="3" fill="#93dbe9" transform="translate(0 25.8674)">
<animateTransform attributeName="transform" type="translate" values="0 147;0 -47" keyTimes="0;1" dur="3s" begin="-1.14s" repeatCount="indefinite"></animateTransform>
</circle><circle cx="3" cy="0" r="3" fill="#93dbe9" transform="translate(0 -20.588)">
<animateTransform attributeName="transform" type="translate" values="0 126;0 -26" keyTimes="0;1" dur="3s" begin="-2.16s" repeatCount="indefinite"></animateTransform>
</circle><circle cx="34" cy="0" r="3" fill="#93dbe9" transform="translate(0 32.6726)">
<animateTransform attributeName="transform" type="translate" values="0 110;0 -10" keyTimes="0;1" dur="3s" begin="-1.2s" repeatCount="indefinite"></animateTransform>
</circle><circle cx="28" cy="0" r="3" fill="#93dbe9" transform="translate(0 87.1287)">
<animateTransform attributeName="transform" type="translate" values="0 115;0 -15" keyTimes="0;1" dur="3s" begin="-2.91s" repeatCount="indefinite"></animateTransform>
</circle><circle cx="100" cy="0" r="2" fill="#93dbe9" transform="translate(0 103.694)">
<animateTransform attributeName="transform" type="translate" values="0 144;0 -44" keyTimes="0;1" dur="3s" begin="-2.91s" repeatCount="indefinite"></animateTransform>
</circle><circle cx="31" cy="0" r="2" fill="#93dbe9" transform="translate(0 75.3353)">
<animateTransform attributeName="transform" type="translate" values="0 137;0 -37" keyTimes="0;1" dur="3s" begin="-0.33s" repeatCount="indefinite"></animateTransform>
</circle><circle cx="10" cy="0" r="2" fill="#93dbe9" transform="translate(0 44.1399)">
<animateTransform attributeName="transform" type="translate" values="0 116;0 -16" keyTimes="0;1" dur="3s" begin="-0.9s" repeatCount="indefinite"></animateTransform>
</circle><circle cx="35" cy="0" r="3" fill="#93dbe9" transform="translate(0 70.0696)">
<animateTransform attributeName="transform" type="translate" values="0 124;0 -24" keyTimes="0;1" dur="3s" begin="-0.36s" repeatCount="indefinite"></animateTransform>
</circle><circle cx="24" cy="0" r="2" fill="#93dbe9" transform="translate(0 -27.3247)">
<animateTransform attributeName="transform" type="translate" values="0 137;0 -37" keyTimes="0;1" dur="3s" begin="-2.1s" repeatCount="indefinite"></animateTransform>
</circle><circle cx="27" cy="0" r="2" fill="#93dbe9" transform="translate(0 -23.3744)">
<animateTransform attributeName="transform" type="translate" values="0 129;0 -29" keyTimes="0;1" dur="3s" begin="-2.16s" repeatCount="indefinite"></animateTransform>
</circle><circle cx="67" cy="0" r="2" fill="#93dbe9" transform="translate(0 127.121)">
<animateTransform attributeName="transform" type="translate" values="0 150;0 -50" keyTimes="0;1" dur="3s" begin="-2.61s" repeatCount="indefinite"></animateTransform>
</circle><circle cx="73" cy="0" r="3" fill="#93dbe9" transform="translate(0 -27.6477)">
<animateTransform attributeName="transform" type="translate" values="0 151;0 -51" keyTimes="0;1" dur="3s" begin="-1.92s" repeatCount="indefinite"></animateTransform>
</circle><circle cx="48" cy="0" r="3" fill="#93dbe9" transform="translate(0 47.9272)">
<animateTransform attributeName="transform" type="translate" values="0 122;0 -22" keyTimes="0;1" dur="3s" begin="-0.81s" repeatCount="indefinite"></animateTransform>
</circle><circle cx="17" cy="0" r="2" fill="#93dbe9" transform="translate(0 45.8726)">
<animateTransform attributeName="transform" type="translate" values="0 110;0 -10" keyTimes="0;1" dur="3s" begin="-0.87s" repeatCount="indefinite"></animateTransform>
</circle><circle cx="31" cy="0" r="2" fill="#93dbe9" transform="translate(0 39.3386)">
<animateTransform attributeName="transform" type="translate" values="0 148;0 -48" keyTimes="0;1" dur="3s" begin="-0.93s" repeatCount="indefinite"></animateTransform>
</circle><circle cx="58" cy="0" r="2" fill="#93dbe9" transform="translate(0 91.6984)">
<animateTransform attributeName="transform" type="translate" values="0 123;0 -23" keyTimes="0;1" dur="3s" begin="-2.91s" repeatCount="indefinite"></animateTransform>
</circle><circle cx="37" cy="0" r="3" fill="#93dbe9" transform="translate(0 8.48538)">
<animateTransform attributeName="transform" type="translate" values="0 104;0 -4" keyTimes="0;1" dur="3s" begin="-1.92s" repeatCount="indefinite"></animateTransform>
</circle><circle cx="96" cy="0" r="2" fill="#93dbe9" transform="translate(0 45.7553)">
<animateTransform attributeName="transform" type="translate" values="0 137;0 -37" keyTimes="0;1" dur="3s" begin="-0.84s" repeatCount="indefinite"></animateTransform>
</circle><circle cx="18" cy="0" r="3" fill="#93dbe9" transform="translate(0 47.2362)">
<animateTransform attributeName="transform" type="translate" values="0 146;0 -46" keyTimes="0;1" dur="3s" begin="-0.81s" repeatCount="indefinite"></animateTransform>
</circle><circle cx="29" cy="0" r="3" fill="#93dbe9" transform="translate(0 -5.28557)">
<animateTransform attributeName="transform" type="translate" values="0 128;0 -28" keyTimes="0;1" dur="3s" begin="-1.83s" repeatCount="indefinite"></animateTransform>
</circle><circle cx="11" cy="0" r="2" fill="#93dbe9" transform="translate(0 137.534)">
<animateTransform attributeName="transform" type="translate" values="0 144;0 -44" keyTimes="0;1" dur="3s" begin="-2.37s" repeatCount="indefinite"></animateTransform>
</circle><circle cx="83" cy="0" r="3" fill="#93dbe9" transform="translate(0 -5.33347)">
<animateTransform attributeName="transform" type="translate" values="0 138;0 -38" keyTimes="0;1" dur="3s" begin="-1.71s" repeatCount="indefinite"></animateTransform>
</circle><circle cx="59" cy="0" r="2" fill="#93dbe9" transform="translate(0 92.4166)">
<animateTransform attributeName="transform" type="translate" values="0 105;0 -5" keyTimes="0;1" dur="3s" begin="-2.61s" repeatCount="indefinite"></animateTransform>
</circle><circle cx="20" cy="0" r="3" fill="#93dbe9" transform="translate(0 82.6626)">
<animateTransform attributeName="transform" type="translate" values="0 143;0 -43" keyTimes="0;1" dur="3s" begin="-0.24s" repeatCount="indefinite"></animateTransform>
</circle><circle cx="75" cy="0" r="3" fill="#93dbe9" transform="translate(0 -12.9326)">
<animateTransform attributeName="transform" type="translate" values="0 147;0 -47" keyTimes="0;1" dur="3s" begin="-1.74s" repeatCount="indefinite"></animateTransform>
</circle>      </pattern></defs>

      <path fill="url(#lds-flask-patid-027471c573877)" clip-path="url(#lds-flask-cpid-ae17417ca339)" d="M59,37.3V18.9c3-0.8,5.1-3.6,5.1-6.8C64.1,8.2,61,5,57.1,5H42.9c-3.9,0-7.1,3.2-7.1,7.1c0,3.2,2.2,6,5.1,6.8v18.4c-11.9,3.8-20.6,15-20.6,28.2C20.4,81.8,33.7,95,50,95s29.6-13.2,29.6-29.6C79.6,52.2,70.9,41.1,59,37.3z"></path>

      <path fill="none" stroke="#5e6fa3" stroke-width="5" d="M59,37.3V18.9c3-0.8,5.1-3.6,5.1-6.8C64.1,8.2,61,5,57.1,5H42.9c-3.9,0-7.1,3.2-7.1,7.1c0,3.2,2.2,6,5.1,6.8v18.4c-11.9,3.8-20.6,15-20.6,28.2C20.4,81.8,33.7,95,50,95s29.6-13.2,29.6-29.6C79.6,52.2,70.9,41.1,59,37.3z"></path>
</svg>